<svg width="16" height="16" viewBox="0 0 16 16" fill="none" xmlns="http://www.w3.org/2000/svg">
<g id="ico / 24 / social media &#38; tools / facebook">
<path id="Icon color" d="M11 4H8.99996C8.63177 4 8.33329 4.29848 8.33329 4.66667V6.66667H11C11.0758 6.66498 11.1477 6.70026 11.1928 6.76125C11.2379 6.82224 11.2505 6.90134 11.2266 6.97333L10.7333 8.44C10.6878 8.57461 10.562 8.66561 10.42 8.66667H8.33329V13.6667C8.33329 13.8508 8.18405 14 7.99996 14H6.33329C6.1492 14 5.99996 13.8508 5.99996 13.6667V8.66667H4.99996C4.81586 8.66667 4.66663 8.51743 4.66663 8.33333V7C4.66663 6.81591 4.81586 6.66667 4.99996 6.66667H5.99996V4.66667C5.99996 3.19391 7.19387 2 8.66663 2H11C11.1841 2 11.3333 2.14924 11.3333 2.33333V3.66667C11.3333 3.85076 11.1841 4 11 4Z" fill="#125BB2"/>
</g>
</svg>
