<svg width="248" height="120" viewBox="0 0 248 120" fill="none" xmlns="http://www.w3.org/2000/svg">
<g id="Group 6">
<path id="Vector" d="M85.3511 120H82.9348V108.302H78.7629V106.166H89.5231V108.302H85.3512L85.3511 120Z" fill="white"/>
<path id="Vector_2" d="M108.42 119.999H105.632L102.576 114.835H100.18V119.999H97.7636V106.166H103.815C105.164 106.166 106.252 106.567 107.078 107.369C107.491 107.775 107.814 108.263 108.027 108.803C108.241 109.342 108.34 109.92 108.317 110.5C108.317 111.662 108 112.592 107.367 113.29C106.766 113.971 105.949 114.421 105.054 114.565L108.42 119.999ZM103.484 112.699C104.105 112.723 104.711 112.508 105.178 112.098C105.387 111.888 105.554 111.639 105.667 111.365C105.78 111.091 105.839 110.797 105.839 110.5C105.839 110.204 105.78 109.91 105.667 109.636C105.554 109.362 105.387 109.113 105.178 108.903C104.711 108.493 104.105 108.278 103.484 108.302H100.18V112.699L103.484 112.699Z" fill="white"/>
<path id="Vector_3" d="M129.321 119.999H126.574L125.562 117.345H119.242L118.23 119.999H115.484L120.895 106.166H123.91L129.321 119.999ZM124.881 115.208L122.402 108.613L119.924 115.208H124.881Z" fill="white"/>
<path id="Vector_4" d="M144.005 119.999H140.989L135.578 106.166H138.325L142.497 117.366L146.669 106.166H149.416L144.005 119.999Z" fill="white"/>
<path id="Vector_5" d="M166.558 119.999H157.119V106.166H166.558V108.302H159.536V111.89H166.413V114.026H159.536V117.863H166.558V119.999Z" fill="white"/>
<path id="Vector_6" d="M183.72 119.999H175.232V106.166H177.648V117.863H183.72L183.72 119.999Z" fill="white"/>
<path id="Vector_7" d="M75.7107 112.574H55.4016V113.818H75.7107V112.574Z" fill="#FF9B38"/>
<path id="Vector_8" d="M209.454 112.574H189.145V113.818H209.454V112.574Z" fill="#FF9B38"/>
<path id="Vector_9" d="M185.537 49.0791C185.571 48.7448 185.584 48.4087 185.577 48.0728C185.543 48.4071 185.53 48.7431 185.537 49.0791Z" fill="white"/>
<path id="Vector_10" d="M246.711 32.0757C246.555 32.0727 243.062 32.2838 242.94 32.2667C242.848 32.2666 242.758 32.2392 242.681 32.188C242.604 32.1369 242.544 32.0642 242.507 31.979C242.035 31.2182 241.524 30.4825 240.976 29.7748C240.462 29.1254 238.373 26.7734 238.373 26.7734C238.373 26.7734 239.631 25.6644 239.804 25.5446C239.978 25.4247 240.455 25.0868 240.498 25.0651C240.54 25.0433 243.994 23.646 244.579 23.4153C245.164 23.1845 247.476 22.4246 247.476 22.4246C247.476 22.4246 246.82 21.9304 246.755 21.9093C246.712 21.8949 241.704 22.5161 238.418 22.9198L238.267 22.6161C238.265 22.6106 238.264 22.6045 238.265 22.5986C238.267 22.5927 238.27 22.5875 238.274 22.5835C238.302 22.5594 238.321 22.526 238.326 22.4895C238.332 22.453 238.324 22.4157 238.304 22.3844C238.17 22.1679 238.022 21.9599 237.861 21.7615C237.57 21.4053 237.19 21.0161 237.099 21.0196C236.779 21.1896 236.505 21.4355 236.302 21.7358C236.258 21.8816 236.423 22.0631 236.766 22.4437C236.968 22.6597 237.185 22.8599 237.418 23.0423C236.367 23.1708 235.652 23.2567 235.617 23.2562C235.396 23.2756 235.176 23.2062 235.005 23.0631C234.845 22.8778 232.591 20.2987 232.294 19.9546C231.997 19.6104 229.718 17.9646 229.34 18.2931C228.962 18.6217 230.407 21.0677 230.621 21.3148C230.834 21.5619 233.379 24.4765 233.379 24.4765C233.57 24.6971 233.616 24.8577 233.5 25.3292C233.472 25.4416 233.317 26.1052 233.096 27.0505C232.935 26.7573 232.75 26.4781 232.542 26.2158C232.216 25.8199 232.061 25.6308 231.911 25.653C231.586 25.8124 231.304 26.0492 231.091 26.3427C231.074 26.4324 231.404 26.8659 231.713 27.2069C231.886 27.3944 232.069 27.5711 232.263 27.7361C232.292 27.76 232.327 27.773 232.364 27.7728C232.401 27.7726 232.436 27.7592 232.464 27.7349C232.468 27.731 232.474 27.7286 232.48 27.7281C232.486 27.7277 232.492 27.7291 232.497 27.7322L232.876 27.9965C232.502 29.6062 232.028 31.6464 231.653 33.261C231.823 33.8807 231.999 34.5672 232.169 35.3004C232.474 34.6162 232.862 33.7657 233.295 32.9025C234.285 30.9301 235.041 29.8096 235.26 29.6186C235.48 29.4276 236.719 28.3503 236.719 28.3503C236.719 28.3503 239.42 31.2513 240.103 31.9543C240.551 32.4057 241.044 32.81 241.574 33.1611C241.574 33.1611 241.764 33.15 241.586 33.9067C241.409 34.6634 241.048 37.1695 241.048 37.1695L241.658 37.8589L243.419 34.3343L247.297 32.755C247.297 32.755 246.867 32.0787 246.711 32.0757Z" fill="white"/>
<path id="Vector_11" d="M186.43 0.000277107C174.964 -0.0400409 163.916 4.32059 155.546 12.1902C147.176 20.0598 142.115 30.8437 141.401 42.3361C141.464 42.4464 141.529 42.5574 141.596 42.6691C142.271 36.5296 144.251 30.6071 147.401 25.3018C152.324 28.8892 157.681 31.8328 163.343 34.0617C162 38.9738 161.118 44.0015 160.71 49.0789C161.608 44.1338 162.907 39.2706 164.593 34.5378C171.343 37.0298 178.434 38.4659 185.618 38.7959C185.616 43.0584 185.604 46.4647 185.577 48.0726C185.679 46.468 185.941 43.0721 186.282 38.823C196.512 39.2016 203.337 37.2263 203.337 37.2263C197.714 37.9702 192.028 38.1272 186.372 37.6949C186.814 32.1994 187.368 25.4962 187.875 19.4244C193.497 19.6549 199.128 19.3162 204.682 18.4134C212.616 29.2122 215.632 41.0964 215.632 41.0964C213.285 31.1325 210.077 23.6642 206.706 18.0767C208.382 17.7794 210.106 17.4298 211.879 17.028C211.879 17.028 209.763 17.3093 206.385 17.5493C201.981 10.4245 197.341 6.46641 194.007 4.33404C207.998 6.71183 219.243 15.4884 225.143 27.7509C229.115 36.0313 230.343 45.3719 228.644 54.4036C229.243 54.2345 229.91 54.0297 230.656 53.7805C231.038 51.3981 231.23 48.989 231.231 46.5759V45.5686C231.231 20.6269 211.267 0.0868241 186.43 0.000277107ZM185.585 17.2644C181.893 16.8716 178.244 16.1341 174.688 15.0616C177.687 11.1433 181.276 7.67256 185.547 5.19074C185.556 7.83315 185.571 12.2376 185.585 17.2644ZM181.934 3.88222C179.588 5.75847 176.01 9.12579 172.438 14.2799C169.199 13.0418 166.327 11.4063 164.114 9.26227C169.627 6.26744 175.691 4.43657 181.934 3.88222ZM163.871 32.2425C155.675 28.7484 150.559 24.6578 148.794 23.1149C152.056 18.3247 156.232 14.2324 161.08 11.075C162.403 12.112 165.677 14.3784 171.099 16.3013C167.985 21.2634 165.553 26.6258 163.871 32.2425ZM185.619 37.6288C178.622 37.028 171.751 35.4021 165.223 32.8026C167.133 27.6993 169.753 22.0791 173.269 17.0129C177.284 18.2078 181.415 18.9678 185.591 19.2799C185.606 25.3655 185.619 32.102 185.619 37.6288ZM204.142 17.6892C198.775 17.9982 193.393 17.9388 188.034 17.5115C188.486 12.1094 188.882 7.39787 189.104 4.77717C195.352 7.87115 200.298 12.6259 204.142 17.6892Z" fill="white"/>
<path id="Vector_12" d="M205.515 53.3496L205.503 53.375C205.507 53.3718 205.51 53.368 205.512 53.3636C205.514 53.3592 205.515 53.3544 205.515 53.3496Z" fill="#FF9B38"/>
<path id="Vector_13" d="M73.3655 70.675C71.3528 68.1573 68.8242 66.2756 66.0446 64.7169C61.9947 62.4721 57.7469 60.6079 53.3553 59.1481C47.1669 57.0555 40.9273 55.1146 34.7018 53.1336C30.208 51.7036 25.695 50.3297 21.3338 48.5176C17.7823 47.042 14.4162 45.2371 11.562 42.6015C9.24873 40.4655 7.52564 37.9658 7.04412 34.7613C6.47415 30.9684 7.61864 27.8293 10.6306 25.4204C12.3757 24.0246 14.3675 23.0827 16.4397 22.3079C22.5711 20.0152 28.927 18.6955 35.4156 17.992C40.1715 17.4719 44.9602 17.3199 49.7392 17.5373C54.609 17.7466 59.4528 18.365 64.2198 19.3858C66.85 19.9124 69.4328 20.6541 71.9426 21.6034C74.605 22.6592 77.1634 23.9059 79.4382 25.6773C79.8467 25.9955 80.2223 26.3567 80.6996 26.7737C80.4496 26.8408 80.3484 26.8682 80.247 26.8952C78.9986 27.2269 77.7275 27.492 76.5079 27.9088C75.2139 28.306 74.0629 29.0725 73.1949 30.1149C71.9577 31.6788 71.8261 33.5529 73.8172 34.9113C74.0041 35.0478 74.2011 35.1701 74.4063 35.2771C77.624 36.8209 80.8652 36.7737 84.0374 35.2233C86.4065 34.0654 87.5669 32.0693 87.4657 29.394C87.3887 27.5082 86.7516 25.6886 85.6366 24.1692C83.8259 21.6273 81.374 19.8533 78.6657 18.4038C74.5332 16.192 70.091 14.8863 65.5291 13.9612C61.2203 13.0894 56.8575 12.5122 52.4709 12.2337C43.4166 11.6536 34.4374 12.0711 25.5821 14.2049C20.8048 15.356 16.2313 17.0397 12.0034 19.5805C8.50117 21.6852 5.39557 24.2429 3.1346 27.7208C0.641829 31.5552 -0.058614 35.715 0.934505 40.1633C1.73196 43.7353 3.70028 46.6123 6.32895 49.0703C8.87251 51.4485 11.8193 53.2129 14.9607 54.6579C19.0023 56.5172 23.2199 57.9096 27.4476 59.2583C32.5275 60.8788 37.6363 62.4077 42.7232 64.0063C47.6655 65.5595 52.5526 67.2694 57.2637 69.4462C60.6401 71.0062 63.868 72.8079 66.5407 75.4611C69.0618 77.9638 70.6505 80.931 70.9139 84.5336C71.0201 85.985 70.9325 87.4156 70.3182 88.7653C69.5203 90.5188 68.0819 91.5618 66.3839 92.3076C64.7646 93.0186 63.0527 93.4099 61.3341 93.7821C58.6368 94.3776 55.8914 94.728 53.1315 94.8287C49.4605 94.9718 45.7846 94.7413 42.1599 94.1406C38.542 93.5203 35.0307 92.5582 31.7324 90.9075C28.7918 89.4358 26.2103 87.5233 24.339 84.7523C23.7463 83.935 23.3563 82.9875 23.2014 81.9885C22.9729 80.1868 23.7589 78.8358 25.1428 77.7847C26.4918 76.7599 28.0477 76.1693 29.6551 75.7081C31.9325 75.0847 34.2666 74.6932 36.6221 74.5397C40.4575 74.2044 44.3214 74.5924 48.0147 75.6839C51.0087 76.6055 53.8837 77.8795 56.5796 79.4794C57.5566 80.0666 58.4807 80.7383 59.3413 81.4869C60.0424 82.0841 60.4459 82.8719 60.0075 83.8478C59.9787 83.9364 59.9645 84.0291 59.9655 84.1223C59.9105 84.7877 60.1295 85.0111 60.7891 84.9383C60.9734 84.9266 61.153 84.8753 61.3158 84.7877C61.8659 84.4785 62.3907 84.126 62.8853 83.7335C64.1096 82.667 64.3382 81.3725 63.5889 79.933C62.8699 78.5518 61.7302 77.5464 60.502 76.652C55.1738 72.7442 48.8184 70.4972 42.2276 70.191C38.6185 69.9899 34.9991 70.2951 31.474 71.0978C26.6914 72.1873 22.9317 74.8093 20.1484 78.806C17.7564 82.2405 17.6149 85.8654 19.7162 89.5084C20.9476 91.6432 22.7538 93.2386 24.791 94.5715C29.0303 97.3456 33.7325 98.9089 38.6668 99.8345C41.9949 100.426 45.3702 100.708 48.7499 100.677C52.6863 100.731 56.6148 100.308 60.4505 99.4185C64.5174 98.4243 68.2745 96.7851 71.4654 93.9928C73.2664 92.4485 74.7427 90.5591 75.8079 88.435C77.3027 85.4999 77.7586 82.1414 77.1005 78.9117C76.5436 75.9011 75.2613 73.0733 73.3655 70.675ZM81.9464 28.7766C82.0049 28.6841 82.0583 28.5885 82.1065 28.4902C82.8522 29.6137 83.29 30.6866 83.2925 31.9007C83.2927 32.0431 83.1175 32.2966 82.9994 32.312C80.793 32.6009 78.6603 32.4411 76.7372 31.1612C76.6235 31.0855 76.522 30.9912 76.2998 30.8136C76.8665 30.708 77.3257 30.6182 77.7865 30.5376C78.4536 30.4211 79.1277 30.3376 79.7883 30.1919C80.6563 30.0022 81.4245 29.4984 81.9464 28.7766Z" fill="#FF9B38"/>
<path id="Vector_14" d="M189.363 87.1798C185.82 88.3124 182.178 88.7705 178.103 88.8388C177.518 88.8032 176.562 88.768 175.61 88.6829C173.544 88.5476 171.521 88.0313 169.641 87.1597C167.772 86.2451 166.327 84.9158 165.62 82.8939C165.547 82.7087 165.518 82.5083 165.539 82.3099C165.619 81.6968 165.747 81.091 165.922 80.4981C167.461 75.9345 172.441 72.9519 177.165 73.7868C178.173 73.9305 179.124 74.3424 179.92 74.9799C180.716 75.6173 181.327 76.4571 181.691 77.4119C181.823 77.7312 181.787 77.9281 181.467 78.0838C180.525 78.5415 179.616 79.0797 178.647 79.4662C175.858 80.5783 172.923 80.9457 169.947 80.9668C168.244 80.9789 167.236 82.0002 166.382 83.2561C165.984 83.8408 166.228 84.2729 166.932 84.3634C167.757 84.4695 168.586 84.5651 169.417 84.5996C173.684 84.7766 177.781 84.0963 181.555 81.9831C184.264 80.4658 186.257 78.3065 187.23 75.2889C187.94 73.0844 187.386 71.0898 185.545 69.7058C184.782 69.1307 183.938 68.6738 183.04 68.3503C179.622 67.1419 176.222 67.3578 172.872 68.6855C169.452 70.0712 166.412 72.2574 164.004 75.0619C161.666 77.7109 159.92 80.6866 159.342 84.2439C159.091 85.5422 159.145 86.8813 159.5 88.155C160.09 90.0974 161.407 91.4079 163.16 92.3163C165.444 93.5002 167.916 93.9028 170.448 93.9776C174.185 94.0576 177.914 93.6368 181.54 92.7264C183.807 92.1792 186.028 91.4875 188.086 90.3571C188.956 89.8796 189.794 89.3427 190.333 88.4717C190.549 88.1236 190.827 87.6927 190.53 87.3144C190.245 86.9515 189.766 87.051 189.363 87.1798Z" fill="#FF9B38"/>
<path id="Vector_15" d="M157.124 87.1859C153.581 88.3185 149.938 88.7712 145.872 88.8382C145.232 88.7994 144.228 88.772 143.232 88.6714C141.229 88.519 139.27 88.01 137.445 87.1683C135.82 86.3755 134.483 85.2672 133.698 83.596C133.487 83.1888 133.365 82.7405 133.342 82.2818C133.364 81.7246 133.469 81.1738 133.653 80.6476C135.124 76.0112 140.211 72.9205 144.977 73.7901C145.976 73.9384 146.918 74.35 147.707 74.9829C148.497 75.6159 149.105 76.4476 149.47 77.3933C149.615 77.7399 149.56 77.9362 149.23 78.0965C148.287 78.5531 147.376 79.0867 146.407 79.4733C143.617 80.5862 140.681 80.9397 137.705 80.9691C136.008 80.9857 134.998 82.0125 134.157 83.2794C133.778 83.8495 134.017 84.2548 134.696 84.3605C135.214 84.4409 135.736 84.4954 136.258 84.5376C140.454 84.8766 144.514 84.3356 148.341 82.5108C151.389 81.0575 153.734 78.8864 154.907 75.6158C155.346 74.3909 155.492 73.1473 155.01 71.8944C154.376 70.2444 153.084 69.2638 151.535 68.6186C148.051 67.1672 144.532 67.2472 141.023 68.5484C137.368 69.9042 134.337 72.1745 131.774 75.0824C129.447 77.7214 127.713 80.6843 127.133 84.2245C126.876 85.5376 126.931 86.8929 127.294 88.1805C127.892 90.1203 129.215 91.4257 130.97 92.3288C133.257 93.5058 135.73 93.9108 138.262 93.9767C142.556 94.0636 146.837 93.4953 150.961 92.2914C152.906 91.739 154.827 91.0889 156.521 89.9477C157.107 89.5255 157.638 89.0321 158.103 88.4789C158.369 88.1796 158.607 87.7059 158.328 87.3286C158.038 86.9364 157.539 87.053 157.124 87.1859Z" fill="#FF9B38"/>
<path id="Vector_16" d="M201.389 64.842C201.547 64.278 201.709 63.7251 201.874 63.1834C255.112 59.0046 249.331 42.2615 244.542 35.3952L244.001 35.504L243.709 36.0895C251.75 50.0477 233.045 57.3821 203.453 58.4737C203.895 57.267 204.306 56.2213 204.642 55.3963C204.878 54.8174 204.949 54.1841 204.848 53.567C204.746 52.9499 204.476 52.3732 204.068 51.9012C202.447 50.0268 200.039 47.0367 200.039 47.0367C197.91 49.7094 196.069 53.8855 194.812 58.6592C163.098 59.0301 139.29 55.9575 132.502 34.2773C132.502 34.2773 129.775 66.2221 193.75 63.6688C191.982 74.5136 193.344 86.6987 200.748 91.4152C202.24 92.3558 203.983 92.8168 205.742 92.7365C207.502 92.6563 209.196 92.0387 210.597 90.9662C211.116 90.5723 211.622 90.1641 212.123 89.7485C212.904 89.0999 213.664 88.4267 214.401 87.7289C218.151 84.1646 221.263 79.9801 223.603 75.3579C223.647 75.2711 223.689 75.1832 223.732 75.0961C224.555 73.4402 225.275 71.7347 225.888 69.9896C225.175 70.2221 224.386 70.4724 223.568 70.7209C223.215 71.6102 222.835 72.4912 222.421 73.3602C219.659 79.2238 215.434 84.2711 210.157 88.0128C209.034 88.8106 207.661 89.1743 206.292 89.0372C204.817 88.3846 203.814 87.1978 203.018 85.7736C201.744 83.4947 201.183 80.9904 200.8 78.4429C200.558 76.8042 200.406 75.1535 200.345 73.4982C200.236 70.5904 200.585 67.6836 201.377 64.8847L201.389 64.842Z" fill="#FF9B38"/>
<path id="Vector_17" d="M127.031 70.5148C126.815 70.2085 126.431 70.3399 126.154 70.5301C125.051 71.2451 123.823 71.7439 122.536 72.0002C122.464 72.0305 122.388 72.0462 122.31 72.0465C122.233 72.0468 122.156 72.0315 122.084 72.0017C122.013 71.9719 121.948 71.9281 121.893 71.8728C121.838 71.8175 121.795 71.7518 121.766 71.6797C121.229 70.7514 120.477 69.9665 119.574 69.3908C118.437 68.6965 117.264 68.5198 116.011 69.1159C114.635 69.7266 113.451 70.7023 112.586 71.9382C112.209 72.5016 111.918 73.1187 111.723 73.7689C111.242 75.3869 111.865 76.5938 113.463 77.1241C114.069 77.2954 114.696 77.3799 115.326 77.3755C116.273 77.4071 116.275 77.3745 116.583 78.286C116.608 78.359 116.62 78.4362 116.641 78.5104C117.127 80.2467 117.214 82.0714 116.895 83.8464C116.773 84.5782 116.549 85.2892 116.231 85.9585C115.421 87.6354 113.817 88.2185 111.826 87.6454C110.088 87.1451 108.677 86.1001 107.384 84.8884C104.652 82.3291 102.555 79.2735 100.643 76.0782C100.272 75.4577 99.9721 75.3939 99.2211 75.7562C99.0746 75.8253 98.934 75.9064 98.8007 75.9987C97.914 76.6241 97.427 77.4799 97.0877 78.5299C96.3841 80.6632 95.3944 82.6902 94.1458 84.5551C93.5396 85.53 92.7562 86.3816 91.8365 87.0657C90.113 88.2842 88.5966 87.8924 87.7689 85.9488L87.7532 85.9119C86.9813 84.0549 86.7462 82.0171 87.0748 80.0321C87.7339 75.9186 89.9598 66.0487 97.265 51.876C97.2915 54.2097 97.5266 60.1458 99.1699 63.5839C99.1699 63.5839 100.901 54.5421 98.8236 50.3689C98.8236 50.3689 107.84 49.0956 111.556 56.6006C111.556 56.6006 111.637 46.3696 99.343 48.2823C99.343 48.2823 102.113 41.327 109.559 40.6314C109.559 40.6314 101.94 35.9366 97.6116 47.9345C97.6116 47.9345 88.0884 34.0239 78.0458 46.0218C78.0458 46.0218 89.4736 40.2837 96.0532 49.3256C96.0532 49.3256 88.781 44.9785 82.0282 56.2809C82.0282 56.2809 88.5995 50.2864 95.6386 50.6845C93.8911 52.8953 88.2731 60.3542 84.3871 69.5395C83.9849 70.4902 83.6034 71.4581 83.2427 72.4431C81.8614 76.2303 80.8489 80.2324 80.5582 84.2273C80.5502 84.3382 80.5416 84.4491 80.5346 84.5599C80.5317 84.6048 80.5277 84.6496 80.5251 84.6945H80.5255C80.4608 85.8022 80.476 86.9132 80.5709 88.0186C80.6575 89.4937 81.0806 90.9291 81.8077 92.2137C82.7231 93.756 84.3261 94.6179 85.9044 94.358C87.8263 94.028 89.6507 93.2713 91.2443 92.1431C93.8554 90.3021 96.0158 87.8893 97.5623 85.0869C97.9038 84.4858 98.2175 83.8688 98.591 83.1713C98.986 83.9947 99.3155 84.7413 99.6946 85.4616C101.153 88.2331 102.958 90.7233 105.617 92.463C108.23 94.1723 110.987 94.5363 113.872 93.1808C116.544 91.9249 118.574 89.9227 120.256 87.5389C121.677 85.5438 122.691 83.286 123.239 80.8956C123.648 79.0919 123.665 77.2211 123.289 75.4101C123.246 75.2872 123.25 75.1525 123.3 75.0322C123.35 74.9119 123.442 74.8145 123.56 74.7589C123.956 74.5307 124.338 74.2793 124.704 74.006C125.651 73.2714 126.56 72.4865 127.06 71.3616C127.116 71.2267 127.143 71.0812 127.138 70.935C127.133 70.7888 127.096 70.6455 127.031 70.5148Z" fill="#FF9B38"/>
</g>
</svg>
