<svg width="16" height="16" viewBox="0 0 16 16" fill="none" xmlns="http://www.w3.org/2000/svg">
<g id="ico / 24 / social media &#38; tools / instagram">
<path id="Icon color" fill-rule="evenodd" clip-rule="evenodd" d="M10.6667 2H5.33333C3.49238 2 2 3.49238 2 5.33333V10.6667C2 12.5076 3.49238 14 5.33333 14H10.6667C12.5076 14 14 12.5076 14 10.6667V5.33333C14 3.49238 12.5076 2 10.6667 2ZM12.8333 10.6667C12.8297 11.8618 11.8617 12.8297 10.6667 12.8333H5.33332C4.13822 12.8297 3.17031 11.8618 3.16665 10.6667V5.33333C3.17031 4.13823 4.13822 3.17032 5.33332 3.16666H10.6667C11.8617 3.17032 12.8297 4.13823 12.8333 5.33333V10.6667ZM11.1667 5.5C11.5349 5.5 11.8333 5.20152 11.8333 4.83333C11.8333 4.46514 11.5349 4.16666 11.1667 4.16666C10.7985 4.16666 10.5 4.46514 10.5 4.83333C10.5 5.20152 10.7985 5.5 11.1667 5.5ZM8 5C6.34315 5 5 6.34314 5 7.99999C5 9.65685 6.34315 11 8 11C9.65685 11 11 9.65685 11 7.99999C11.0018 7.2038 10.6863 6.43971 10.1233 5.87671C9.56029 5.31372 8.79619 4.99822 8 5ZM6.16665 8C6.16665 9.01252 6.98746 9.83333 7.99998 9.83333C9.01251 9.83333 9.83332 9.01252 9.83332 8C9.83332 6.98747 9.01251 6.16666 7.99998 6.16666C6.98746 6.16666 6.16665 6.98747 6.16665 8Z" fill="#125BB2"/>
</g>
</svg>
