<svg width="20" height="17" viewBox="0 0 20 17" fill="none" xmlns="http://www.w3.org/2000/svg">
<path fill-rule="evenodd" clip-rule="evenodd" d="M0.416504 1.93161C0.416504 1.25071 0.976148 0.69873 1.6665 0.69873H18.3332C19.0235 0.69873 19.5832 1.25071 19.5832 1.93161C19.5832 2.61251 19.0235 3.16448 18.3332 3.16448H1.6665C0.976148 3.16448 0.416504 2.61251 0.416504 1.93161ZM0.416504 8.50695C0.416504 7.82605 0.976148 7.27407 1.6665 7.27407H18.3332C19.0235 7.27407 19.5832 7.82605 19.5832 8.50695C19.5832 9.18785 19.0235 9.73983 18.3332 9.73983H1.6665C0.976148 9.73983 0.416504 9.18785 0.416504 8.50695ZM1.6665 13.8494C0.976148 13.8494 0.416504 14.4014 0.416504 15.0823C0.416504 15.7632 0.976148 16.3152 1.6665 16.3152H18.3332C19.0235 16.3152 19.5832 15.7632 19.5832 15.0823C19.5832 14.4014 19.0235 13.8494 18.3332 13.8494H1.6665Z" fill="white"/>
</svg>
