<svg width="24" height="26" viewBox="0 0 24 26" fill="none" xmlns="http://www.w3.org/2000/svg">
<g id="shield">
<path id="Combo shape" fill-rule="evenodd" clip-rule="evenodd" d="M3.17025 3.59096L9.83401 0.629289C11.213 0.0163933 12.7871 0.0163923 14.1662 0.629288L20.8035 3.57922C22.7444 4.44186 24.0185 6.38068 23.8825 8.50032C23.3608 16.6307 21.0364 20.3061 14.7529 24.5701C13.0947 25.6954 10.9073 25.6927 9.24782 24.5692C2.98366 20.3283 0.57293 16.7041 0.0934202 8.47181C-0.0292329 6.36608 1.24275 4.44763 3.17025 3.59096ZM16.5645 9.4938C16.8373 9.18207 16.8057 8.70825 16.494 8.43549C16.1822 8.16273 15.7084 8.19432 15.4357 8.50604L11.3991 13.1193C11.311 13.22 11.1592 13.2334 11.0548 13.1499L8.46861 11.0809C8.14516 10.8222 7.67319 10.8746 7.41443 11.1981C7.15568 11.5215 7.20812 11.9935 7.53156 12.2522L10.1177 14.3212C10.849 14.9062 11.9113 14.8118 12.5279 14.107L16.5645 9.4938Z" fill="#125BB2"/>
</g>
</svg>
