<svg width="16" height="16" viewBox="0 0 16 16" fill="none" xmlns="http://www.w3.org/2000/svg">
<g id="ico / 24 / social media &#38; tools / telegram">
<path id="Icon color" fill-rule="evenodd" clip-rule="evenodd" d="M13.3117 2C13.6591 2.01027 13.9887 2.1566 14.2301 2.40772C14.5712 2.73462 14.7261 3.21162 14.6427 3.67766L12.8925 12.7677C12.8158 13.1907 12.5478 13.5537 12.1671 13.7503L11.9475 13.8639C11.49 14.0888 10.9449 14.0317 10.5434 13.7169L8.49378 12.0927L7.43569 13.0953C7.22243 13.3002 6.93894 13.4151 6.64379 13.4161C6.56423 13.4259 6.48377 13.4259 6.40422 13.4161C5.98122 13.3201 5.64427 12.9996 5.5258 12.5806L4.6607 9.64637L1.79255 8.68389C1.50684 8.59072 1.31869 8.31685 1.33337 8.0155V7.58105C1.31205 7.29196 1.47868 7.02202 1.74596 6.91266L12.7927 2.10694C12.9568 2.03671 13.1333 2.00034 13.3117 2ZM11.7146 12.8814C11.8189 12.825 11.8923 12.7243 11.9142 12.6073L13.6378 3.51724C13.663 3.38464 13.6234 3.24794 13.5313 3.14962C13.4677 3.07555 13.3758 3.03187 13.2784 3.02931C13.2391 3.01993 13.198 3.01993 13.1587 3.02931L2.33154 7.74814L5.33279 8.77746C5.4233 8.82076 5.52843 8.82076 5.61894 8.77746L10.6499 5.58924C10.7472 5.54428 10.8626 5.57187 10.9294 5.65608C10.9768 5.70077 11.0013 5.76477 10.9959 5.82986C10.9936 5.89621 10.9648 5.95883 10.916 6.00365C10.1574 6.6453 8.88638 7.76819 6.76354 9.77336C6.69574 9.83761 6.65724 9.92704 6.65707 10.0207V12.3801C6.6907 12.3783 6.72308 12.3667 6.75023 12.3467L8.22757 10.9497C8.351 10.8398 8.53668 10.8398 8.66012 10.9497L11.1623 12.9549C11.2162 13.0011 11.2844 13.0271 11.3553 13.0284C11.4038 13.0286 11.4517 13.0171 11.495 12.995L11.7146 12.8814Z" fill="#125BB2"/>
</g>
</svg>
