<svg width="32" height="33" viewBox="0 0 32 33" fill="none" xmlns="http://www.w3.org/2000/svg">
<g id="Bold / Like / Medal Ribbon Star">
<path id="Vector" fill-rule="evenodd" clip-rule="evenodd" d="M16 21.8333C21.1547 21.8333 25.3334 17.6546 25.3334 12.5C25.3334 7.3453 21.1547 3.16663 16 3.16663C10.8454 3.16663 6.66669 7.3453 6.66669 12.5C6.66669 17.6546 10.8454 21.8333 16 21.8333ZM16 8.49996C15.6213 8.49996 15.3679 8.95441 14.8613 9.86331L14.7302 10.0985C14.5862 10.3567 14.5142 10.4859 14.402 10.5711C14.2898 10.6563 14.15 10.6879 13.8704 10.7512L13.6158 10.8088C12.632 11.0314 12.14 11.1427 12.023 11.5191C11.906 11.8954 12.2413 12.2876 12.9121 13.0719L13.0856 13.2748C13.2762 13.4977 13.3715 13.6092 13.4144 13.747C13.4572 13.8849 13.4428 14.0336 13.414 14.331L13.3878 14.6017C13.2864 15.6482 13.2357 16.1714 13.5421 16.404C13.8485 16.6367 14.3091 16.4246 15.2303 16.0004L15.4686 15.8907C15.7304 15.7702 15.8613 15.7099 16 15.7099C16.1388 15.7099 16.2697 15.7702 16.5314 15.8907L16.7698 16.0004C17.691 16.4246 18.1516 16.6367 18.458 16.404C18.7644 16.1714 18.7137 15.6482 18.6123 14.6017L18.586 14.331C18.5572 14.0336 18.5428 13.8849 18.5857 13.747C18.6285 13.6092 18.7238 13.4977 18.9144 13.2749L19.088 13.0719C19.7587 12.2876 20.0941 11.8954 19.9771 11.5191C19.86 11.1427 19.3681 11.0314 18.3842 10.8088L18.1297 10.7512C17.8501 10.6879 17.7103 10.6563 17.598 10.5711C17.4858 10.4859 17.4138 10.3567 17.2698 10.0985L17.1388 9.86331C16.6321 8.95441 16.3788 8.49996 16 8.49996Z" fill="#125BB2"/>
<path id="Vector_2" d="M9.45735 21.7552L8.95232 23.5973C8.11453 26.6531 7.69564 28.181 8.25463 29.0175C8.45053 29.3106 8.71334 29.5459 9.01829 29.7011C9.88846 30.1442 11.232 29.4441 13.9191 28.044C14.8132 27.5781 15.2602 27.3452 15.7352 27.2946C15.9113 27.2758 16.0887 27.2758 16.2648 27.2946C16.7398 27.3452 17.1868 27.5781 18.0809 28.044C20.768 29.4441 22.1115 30.1442 22.9817 29.7011C23.2867 29.5459 23.5495 29.3106 23.7454 29.0175C24.3044 28.181 23.8855 26.6531 23.0477 23.5973L22.5427 21.7552C20.6945 23.0641 18.4371 23.8334 16 23.8334C13.5629 23.8334 11.3055 23.0641 9.45735 21.7552Z" fill="#125BB2"/>
</g>
</svg>
