<svg width="32" height="33" viewBox="0 0 32 33" fill="none" xmlns="http://www.w3.org/2000/svg">
<g id="Bold / Security / Shield User">
<path id="Vector" fill-rule="evenodd" clip-rule="evenodd" d="M4 14.3889C4 10.1254 4 7.99373 4.50335 7.27657C5.00671 6.55941 7.0111 5.8733 11.0199 4.50108L11.7836 4.23964C13.8733 3.52434 14.9181 3.16669 16 3.16669C17.0819 3.16669 18.1267 3.52434 20.2164 4.23964L20.9801 4.50108C24.9889 5.8733 26.9933 6.55941 27.4966 7.27657C28 7.99373 28 10.1254 28 14.3889V16.4885C28 24.0059 22.348 27.654 18.8019 29.2031C17.84 29.6233 17.359 29.8334 16 29.8334C14.641 29.8334 14.16 29.6233 13.1981 29.2031C9.65195 27.654 4 24.0059 4 16.4885V14.3889ZM18.6667 12.5C18.6667 13.9728 17.4728 15.1667 16 15.1667C14.5272 15.1667 13.3333 13.9728 13.3333 12.5C13.3333 11.0273 14.5272 9.83335 16 9.83335C17.4728 9.83335 18.6667 11.0273 18.6667 12.5ZM16 23.1667C21.3333 23.1667 21.3333 21.9728 21.3333 20.5C21.3333 19.0273 18.9455 17.8334 16 17.8334C13.0545 17.8334 10.6667 19.0273 10.6667 20.5C10.6667 21.9728 10.6667 23.1667 16 23.1667Z" fill="#125BB2"/>
</g>
</svg>
